ply
format ascii 1.0
comment Created in Blender version 4.0.1
element vertex 42
property float x
property float y
property float z
property float nx
property float ny
property float nz
end_header
0 0 -5 -1.4244247e-06 -5.2561795e-09 -1
3.6180365 -2.6286266 -2.2360976 0.72360784 -0.52572685 -0.4472171
-1.3819401 -4.2532463 -2.2360992 -0.27638924 -0.8506496 -0.4472184
-4.4721313 0 -2.236078 -0.89442647 0 -0.44721523
-1.3819401 4.2532463 -2.2360992 -0.27638924 0.8506496 -0.44721842
3.6180365 2.6286266 -2.2360976 0.7236077 0.5257268 -0.4472171
1.3819401 -4.2532463 2.2360992 0.2763892 -0.8506496 0.44721842
-3.6180365 -2.6286266 2.2360976 -0.7236077 -0.52572685 0.44721717
-3.6180365 2.6286266 2.2360976 -0.7236077 0.52572685 0.44721717
1.3819401 4.2532463 2.2360992 0.27638918 0.8506496 0.44721842
4.4721313 0 2.236078 0.89442647 0 0.4472152
0 0 5 1.4296809e-06 -2.6280897e-09 1
-0.8122778 -2.4999764 -4.253272 -0.162457 -0.4999964 -0.8506535
2.1266134 -1.545057 -4.253271 0.42532352 -0.309013 -0.85065323
1.3143442 -4.0450583 -2.6286883 0.26286894 -0.8090131 -0.5257354
4.253239 0 -2.6286795 0.8506488 1.0611704e-08 -0.52573436
2.1266134 1.545057 -4.253271 0.42532352 0.309013 -0.85065323
-2.6286488 0 -4.253258 -0.52572966 -5.305852e-09 -0.85065174
-3.440947 -2.4999847 -2.6286812 -0.68818945 -0.4999988 -0.52573425
-0.8122778 2.4999764 -4.253272 -0.162457 0.4999964 -0.8506535
-3.440947 2.4999847 -2.6286812 -0.6881894 0.49999875 -0.52573425
1.3143442 4.0450583 -2.6286883 0.26286894 0.8090131 -0.5257353
4.755289 -1.5450631 0 0.95105714 -0.30901518 -2.0692853e-07
4.755289 1.5450631 0 0.9510571 0.3090152 -2.1754026e-07
0 -4.9999995 0 5.305866e-09 -1 -5.305866e-09
2.9389281 -4.0450835 0 0.587786 -0.80901647 1.9101125e-07
-4.755289 -1.5450631 0 -0.9510571 -0.3090152 2.3345785e-07
-2.9389281 -4.0450835 0 -0.587786 -0.80901647 -2.2815233e-07
-2.9389281 4.0450835 0 -0.587786 0.80901647 -2.5733462e-07
-4.755289 1.5450631 0 -0.9510571 0.3090152 2.2815199e-07
2.9389281 4.0450835 0 0.587786 0.80901647 1.7774659e-07
0 4.9999995 0 -9.948499e-09 1 -3.1835196e-08
3.440947 -2.4999847 2.6286812 0.6881894 -0.4999988 0.52573425
-1.3143442 -4.0450583 2.6286883 -0.26286894 -0.80901307 0.5257354
-4.253239 0 2.6286795 -0.8506488 -1.5917555e-08 0.5257343
-1.3143442 4.0450583 2.6286883 -0.26286894 0.8090131 0.5257354
3.440947 2.4999847 2.6286812 0.6881894 0.4999988 0.52573425
0.8122778 -2.4999764 4.253272 0.16245702 -0.49999642 0.8506534
2.6286488 0 4.253258 0.52572966 2.6529263e-09 0.8506517
-2.1266134 -1.545057 4.253271 -0.4253235 -0.309013 0.85065323
-2.1266134 1.545057 4.253271 -0.4253234 0.309013 0.85065323
0.8122778 2.4999764 4.253272 0.16245702 0.49999642 0.8506534
