ply
format ascii 1.0
comment Created in Blender version 4.0.1
element vertex 482
property float x
property float y
property float z
property float nx
property float ny
property float nz
end_header
0 11.111404 16.629393 -1.12917824e-07 0.055977512 0.08286446
0 16.629393 11.111404 -1.05984036e-07 0.083334 0.055276077
0 19.615705 3.9018064 -1.6691003e-07 0.09810153 0.019393029
0 20 0 -2.1104812e-07 0.1 0
0 19.615705 -3.9018064 -1.6691003e-07 0.09810153 -0.019393029
0 16.629393 -11.111404 -1.0586387e-07 0.08333399 -0.055276077
0.76120466 3.8268342 19.615705 0.003920748 0.019710751 0.09795976
1.4931569 7.506606 18.47759 0.0075672925 0.038043387 0.0921707
2.1677277 10.8979025 16.629393 0.010920665 0.054901917 0.08286446
2.7589939 13.870398 14.142136 0.013854171 0.06964963 0.0704059
3.2442334 16.309862 11.111404 0.016257629 0.08173275 0.055276114
3.6047988 18.122547 7.6536694 0.018041236 0.090699665 0.03805373
3.8268342 19.238794 3.9018064 0.01913864 0.09621654 0.019393047
3.9018064 19.615705 0 0.019509042 0.098078534 0
3.8268342 19.238794 -3.9018064 0.01913864 0.09621654 -0.019393044
3.6047988 18.122547 -7.6536694 0.01804124 0.090699665 -0.03805373
3.2442334 16.309862 -11.111404 0.016257634 0.081732735 -0.055276122
2.7589939 13.870398 -14.142136 0.013854134 0.069649614 -0.07040592
2.1677277 10.8979025 -16.629393 0.010920589 0.054901935 -0.082864456
1.4931569 7.506606 -18.47759 0.007567254 0.038043413 -0.09217069
0.76120466 3.8268342 -19.615705 0.0039207456 0.019710755 -0.09795976
1.4931566 3.6047988 19.615705 0.00769073 0.018567102 0.097959764
2.9289322 7.0710683 18.47759 0.014843794 0.03583608 0.0921707
4.2521505 10.265598 16.629393 0.021421667 0.051716473 0.08286446
5.411961 13.065629 14.142136 0.027175957 0.06560852 0.0704059
6.3637924 15.363552 11.111404 0.031890545 0.07699054 0.055276133
7.071067 17.071068 7.6536694 0.03538925 0.0854372 0.038053732
7.506605 18.122547 3.9018064 0.037541833 0.090633996 0.019392999
7.6536684 18.477589 0 0.038268358 0.09238795 0
7.506605 18.122547 -3.9018064 0.037541833 0.090633996 -0.019392999
7.071067 17.071068 -7.6536694 0.035389256 0.0854372 -0.038053744
6.3637924 15.363552 -11.111404 0.03189055 0.07699053 -0.055276137
5.411961 13.065629 -14.142136 0.027175957 0.06560852 -0.0704059
4.2521505 10.265598 -16.629393 0.021421667 0.051716473 -0.08286446
2.9289322 7.0710683 -18.47759 0.0148437945 0.03583608 -0.0921707
1.4931566 3.6047988 -19.615705 0.007690694 0.018567102 -0.097959764
2.1677275 3.2442331 19.615705 0.011165249 0.016709955 0.09795976
4.2521505 6.363793 18.47759 0.021549882 0.03225162 0.0921707
6.1731653 9.238794 16.629393 0.031099433 0.046543576 0.08286446
7.85695 11.758756 14.142136 0.03945335 0.05904611 0.0704059
9.238794 13.826832 11.111404 0.046297874 0.06928965 0.055276133
10.265598 15.363554 7.6536694 0.051377233 0.07689144 0.038053755
10.8979025 16.309862 3.9018064 0.054502305 0.081568435 0.019392991
11.111404 16.629389 0 0.05555705 0.08314695 5.059371e-09
10.8979025 16.309862 -3.9018064 0.054502305 0.08156844 -0.01939299
10.265598 15.363554 -7.6536694 0.051377233 0.07689144 -0.038053762
9.238794 13.826832 -11.111404 0.04629787 0.069289654 -0.055276137
7.85695 11.758756 -14.142136 0.039453346 0.05904611 -0.0704059
6.1731653 9.238794 -16.629393 0.031099433 0.046543576 -0.08286446
4.2521505 6.363793 -18.47759 0.021549886 0.032251615 -0.0921707
2.1677275 3.2442331 -19.615705 0.011165296 0.01670995 -0.09795976
2.7589936 2.7589931 19.615705 0.014210619 0.014210646 0.097959764
5.411961 5.4119606 18.47759 0.027427776 0.027427748 0.09217069
7.856949 7.856948 16.629393 0.039582074 0.03958206 0.08286446
10 10 14.142136 0.05021457 0.05021459 0.0704059
11.758755 11.758753 11.111404 0.058926024 0.058926016 0.055276126
13.065628 13.065629 7.6536694 0.06539081 0.06539079 0.038053732
13.870398 13.870397 3.9018064 0.06936829 0.06936824 0.019392995
14.142136 14.142132 0 0.07071071 0.07071066 5.059371e-09
13.870398 13.870397 -3.9018064 0.06936829 0.06936824 -0.01939299
13.065628 13.065629 -7.6536694 0.06539081 0.06539079 -0.038053744
11.758755 11.758753 -11.111404 0.058926012 0.058926012 -0.055276133
10 10 -14.142136 0.050214566 0.050214596 -0.0704059
7.856949 7.856948 -16.629393 0.03958207 0.039582066 -0.08286446
5.411961 5.4119606 -18.47759 0.027427796 0.027427752 -0.09217068
2.7589936 2.7589931 -19.615705 0.014210695 0.014210644 -0.09795976
3.2442331 2.167727 19.615705 0.016709859 0.011165232 0.09795977
6.363793 4.25215 18.47759 0.032251604 0.021549847 0.0921707
9.238794 6.1731644 16.629393 0.046543587 0.031099437 0.08286446
11.758756 7.85695 14.142136 0.0590461 0.03945335 0.0704059
13.826833 9.238792 11.111404 0.06928967 0.04629787 0.055276133
15.363552 10.265599 7.6536694 0.07689146 0.051377226 0.03805374
16.309862 10.8979 3.9018064 0.081568465 0.054502267 0.019392978
16.62939 11.111401 0 0.08314698 0.055557 0
16.309862 10.8979 -3.9018064 0.081568465 0.054502267 -0.019392977
15.363552 10.265599 -7.6536694 0.07689146 0.051377226 -0.03805374
13.826833 9.238792 -11.111404 0.069289654 0.04629787 -0.055276133
11.758756 7.85695 -14.142136 0.059046097 0.039453357 -0.07040592
9.238794 6.1731644 -16.629393 0.04654358 0.031099437 -0.08286446
6.363793 4.25215 -18.47759 0.032251645 0.021549849 -0.09217069
3.2442331 2.167727 -19.615705 0.016709939 0.011165231 -0.09795976
0 0 20 -9.24411e-09 -3.2329126e-09 0.1
3.6047983 1.4931562 19.615705 0.01856709 0.0076907403 0.097959764
7.071067 2.9289317 18.47759 0.035836086 0.01484378 0.092170686
10.265598 4.252149 16.629393 0.051716466 0.021421654 0.082864456
13.065629 5.411961 14.142136 0.06560854 0.027175946 0.07040589
15.363552 6.36379 11.111404 0.07699055 0.03189053 0.055276133
17.071066 7.0710683 7.6536694 0.0854372 0.035389252 0.038053732
18.122547 7.5066032 3.9018064 0.09063401 0.037541825 0.01939297
18.477589 7.6536646 0 0.09238796 0.038268335 0
18.122547 7.5066032 -3.9018064 0.09063402 0.03754182 -0.01939297
17.071066 7.0710683 -7.6536694 0.0854372 0.03538925 -0.03805373
15.363552 6.36379 -11.111404 0.07699054 0.03189053 -0.055276133
13.065629 5.411961 -14.142136 0.065608524 0.027175942 -0.07040589
10.265598 4.252149 -16.629393 0.051716466 0.02142166 -0.08286446
7.071067 2.9289317 -18.47759 0.035836104 0.0148437815 -0.09217069
3.6047983 1.4931562 -19.615705 0.01856713 0.00769074 -0.09795976
3.8268332 0.7612043 19.615705 0.019710725 0.00392071 0.09795976
7.5066047 1.4931562 18.47759 0.038043384 0.007567294 0.092170686
10.897902 2.1677263 16.629393 0.054901917 0.010920656 0.08286446
13.870398 2.758994 14.142136 0.069649644 0.013854164 0.07040589
16.30986 3.2442312 11.111404 0.08173273 0.016257642 0.055276133
18.122547 3.6047997 7.6536694 0.09069965 0.018041288 0.038053732
19.238792 3.8268323 3.9018064 0.09621655 0.019138655 0.019392963
19.615702 3.9018025 0 0.09807853 0.019509021 0
19.238792 3.8268323 -3.9018064 0.09621655 0.019138655 -0.019392963
18.122547 3.6047997 -7.6536694 0.09069965 0.018041288 -0.038053732
16.30986 3.2442312 -11.111404 0.08173273 0.016257646 -0.055276133
13.870398 2.758994 -14.142136 0.069649644 0.013854164 -0.07040589
10.897902 2.1677263 -16.629393 0.054901905 0.010920655 -0.08286446
7.5066047 1.4931562 -18.47759 0.038043384 0.007567294 -0.092170686
3.8268332 0.7612043 -19.615705 0.019710725 0.00392071 -0.09795976
3.9018054 -2.2351742e-07 19.615705 0.0200969 -7.1593653e-10 0.09795976
7.653668 -4.4703484e-07 18.47759 0.038788695 -1.1952324e-10 0.0921707
11.1114025 -1.0430813e-06 16.629393 0.0559775 -1.7362757e-08 0.082864456
14.142134 2.9802322e-07 14.142136 0.07101416 -3.2750023e-08 0.07040589
16.629389 -1.7881393e-06 11.111404 0.08333396 -2.2350367e-08 0.055276137
18.477589 8.940697e-07 7.6536694 0.09247656 -6.978723e-09 0.03805374
19.615704 -1.7881393e-06 3.9018064 0.09810155 -3.1069828e-08 0.019392952
19.999994 -3.2782555e-06 0 0.1 -4.1438657e-08 0
19.615704 -1.7881393e-06 -3.9018064 0.09810155 -3.1069828e-08 -0.019392952
18.477589 8.940697e-07 -7.6536694 0.09247656 -6.978723e-09 -0.038053744
16.629389 -1.7881393e-06 -11.111404 0.08333396 -2.2350367e-08 -0.055276137
14.142134 2.9802322e-07 -14.142136 0.07101416 -3.2750023e-08 -0.07040589
11.1114025 -1.0430813e-06 -16.629393 0.0559775 -1.7362757e-08 -0.082864456
7.653668 -4.4703484e-07 -18.47759 0.038788687 -1.7928485e-10 -0.0921707
3.9018054 -2.2351742e-07 -19.615705 0.020096892 -8.203439e-10 -0.09795976
3.826833 -0.76120466 19.615705 0.019710729 -0.003920716 0.09795976
7.5066047 -1.493157 18.47759 0.038043406 -0.007567309 0.09217069
10.8979 -2.1677282 16.629393 0.05490191 -0.010920685 0.08286446
13.870397 -2.7589931 14.142136 0.06964964 -0.013854188 0.0704059
16.309858 -3.2442346 11.111404 0.08173273 -0.016257664 0.05527615
18.122547 -3.604798 7.6536694 0.09069965 -0.01804128 0.038053732
19.238792 -3.8268354 3.9018064 0.09621655 -0.019138677 0.019392945
19.615698 -3.9018085 0 0.098078534 -0.019509068 4.8184484e-10
19.238792 -3.8268354 -3.9018064 0.09621655 -0.019138677 -0.019392943
18.122547 -3.604798 -7.6536694 0.09069965 -0.01804128 -0.038053732
16.309858 -3.2442346 -11.111404 0.08173273 -0.016257664 -0.05527615
13.870397 -2.7589931 -14.142136 0.06964964 -0.013854188 -0.0704059
10.8979 -2.1677282 -16.629393 0.05490191 -0.010920686 -0.08286446
7.5066047 -1.493157 -18.47759 0.038043384 -0.0075673084 -0.092170686
3.826833 -0.76120466 -19.615705 0.019710725 -0.0039207162 -0.09795976
3.6047978 -1.4931564 19.615705 0.018567083 -0.0076907533 0.097959764
7.071067 -2.9289322 18.47759 0.03583612 -0.014843804 0.09217068
10.265596 -4.2521505 16.629393 0.051716458 -0.021421673 0.082864456
13.065628 -5.4119596 14.142136 0.06560852 -0.027175933 0.0704059
15.36355 -6.363793 11.111404 0.07699054 -0.031890534 0.055276137
17.071066 -7.071066 7.6536694 0.0854372 -0.035389252 0.038053732
18.122543 -7.506606 3.9018064 0.090634 -0.03754185 0.019392934
18.477581 -7.6536694 0 0.09238794 -0.038268376 7.227672e-10
18.122543 -7.506606 -3.9018064 0.09063401 -0.03754185 -0.019392936
17.071066 -7.071066 -7.6536694 0.0854372 -0.035389252 -0.03805374
15.36355 -6.363793 -11.111404 0.07699054 -0.03189053 -0.055276137
13.065628 -5.4119596 -14.142136 0.06560852 -0.027175933 -0.07040591
10.265596 -4.2521505 -16.629393 0.051716466 -0.021421675 -0.082864456
7.071067 -2.9289322 -18.47759 0.035836104 -0.014843804 -0.09217068
3.6047978 -1.4931564 -19.615705 0.018567113 -0.0076907524 -0.09795976
3.244232 -2.1677268 19.615705 0.016709892 -0.01116524 0.09795977
6.363792 -4.2521505 18.47759 0.03225164 -0.021549858 0.09217068
9.238791 -6.173165 16.629393 0.046543583 -0.031099442 0.082864456
11.758755 -7.8569484 14.142136 0.0590461 -0.039453354 0.07040589
13.826829 -9.238794 11.111404 0.06928965 -0.046297885 0.055276126
15.363552 -10.265597 7.6536694 0.076891445 -0.051377244 0.038053732
16.309858 -10.897902 3.9018064 0.08156844 -0.05450232 0.019392928
16.629383 -11.111403 0 0.083146945 -0.05555705 0
16.309858 -10.897902 -3.9018064 0.08156844 -0.05450232 -0.01939293
15.363552 -10.265597 -7.6536694 0.076891445 -0.051377248 -0.03805374
13.826829 -9.238794 -11.111404 0.069289654 -0.04629789 -0.055276126
11.758755 -7.8569484 -14.142136 0.0590461 -0.039453354 -0.07040589
9.238791 -6.173165 -16.629393 0.046543587 -0.031099439 -0.082864456
6.363792 -4.2521505 -18.47759 0.032251634 -0.021549862 -0.0921707
3.244232 -2.1677268 -19.615705 0.016709922 -0.011165242 -0.097959764
2.7589922 -2.7589927 19.615705 0.014210656 -0.014210648 0.09795976
5.411959 -5.4119606 18.47759 0.02742779 -0.027427763 0.09217068
7.8569455 -7.8569484 16.629393 0.03958207 -0.039582077 0.082864456
9.999999 -9.999999 14.142136 0.050214585 -0.050214596 0.07040589
11.758751 -11.758753 11.111404 0.058926005 -0.058926027 0.055276133
13.065628 -13.065626 7.6536694 0.065390795 -0.06539082 0.03805374
13.870394 -13.870397 3.9018064 0.069368266 -0.06936828 0.019392934
14.142124 -14.142133 0 0.07071065 -0.07071071 4.818448e-09
13.870394 -13.870397 -3.9018064 0.069368266 -0.06936828 -0.019392932
13.065628 -13.065626 -7.6536694 0.06539079 -0.06539081 -0.03805374
11.758751 -11.758753 -11.111404 0.058925997 -0.058926027 -0.055276133
9.999999 -9.999999 -14.142136 0.050214585 -0.050214596 -0.07040589
7.8569455 -7.8569484 -16.629393 0.03958207 -0.039582077 -0.082864456
5.411959 -5.4119606 -18.47759 0.027427772 -0.02742776 -0.09217068
2.7589922 -2.7589927 -19.615705 0.0142107 -0.014210649 -0.09795976
2.1677263 -3.244232 19.615705 0.011165253 -0.016709952 0.09795976
4.2521486 -6.3637924 18.47759 0.021549882 -0.03225163 0.09217068
6.173162 -9.238793 16.629393 0.031099422 -0.046543606 0.082864456
7.8569484 -11.758755 14.142136 0.03945334 -0.05904612 0.0704059
9.2387905 -13.82683 11.111404 0.04629786 -0.06928967 0.055276137
10.265598 -15.363551 7.6536694 0.051377226 -0.07689146 0.03805374
10.897898 -16.30986 3.9018064 0.05450228 -0.08156847 0.01939293
11.111394 -16.629387 0 0.055556983 -0.08314699 4.818448e-09
10.897898 -16.30986 -3.9018064 0.054502275 -0.08156847 -0.01939292
10.265598 -15.363551 -7.6536694 0.051377226 -0.07689146 -0.038053732
9.2387905 -13.82683 -11.111404 0.04629786 -0.069289654 -0.055276137
7.8569484 -11.758755 -14.142136 0.03945334 -0.059046116 -0.0704059
6.173162 -9.238793 -16.629393 0.031099422 -0.046543606 -0.082864456
4.2521486 -6.3637924 -18.47759 0.021549853 -0.032251637 -0.0921707
2.1677263 -3.244232 -19.615705 0.011165264 -0.016709957 -0.09795976
1.4931557 -3.6047971 19.615705 0.0076906397 -0.018567111 0.097959764
2.9289305 -7.0710664 18.47759 0.014843806 -0.0358361 0.09217069
4.252147 -10.265596 16.629393 0.021421643 -0.051716473 0.082864456
5.4119596 -13.065628 14.142136 0.027175933 -0.06560853 0.070405886
6.3637886 -15.36355 11.111404 0.031890526 -0.07699057 0.055276126
7.071067 -17.071064 7.6536694 0.035389237 -0.085437216 0.03805372
7.5066004 -18.122543 3.9018064 0.037541807 -0.090634026 0.01939292
7.653659 -18.477583 0 0.03826831 -0.092387974 0
7.5066004 -18.122543 -3.9018064 0.037541807 -0.090634026 -0.019392924
7.071067 -17.071064 -7.6536694 0.035389237 -0.08543721 -0.038053717
6.3637886 -15.36355 -11.111404 0.031890526 -0.07699057 -0.055276126
5.4119596 -13.065628 -14.142136 0.027175931 -0.065608524 -0.070405886
4.252147 -10.265596 -16.629393 0.021421643 -0.051716466 -0.08286446
2.9289305 -7.0710664 -18.47759 0.014843771 -0.035836097 -0.092170686
1.4931557 -3.6047971 -19.615705 0.007690657 -0.018567111 -0.09795977
0.76120406 -3.8268318 19.615705 0.003920784 -0.019710736 0.09795976
1.4931552 -7.5066037 18.47759 0.007567329 -0.03804339 0.09217069
2.1677246 -10.897898 16.629393 0.010920653 -0.054901905 0.08286446
2.7589931 -13.870397 14.142136 0.013854167 -0.06964963 0.07040589
3.2442305 -16.309856 11.111404 0.016257644 -0.08173274 0.055276114
3.6047988 -18.122543 7.6536694 0.018041275 -0.090699665 0.03805371
3.8268304 -19.238789 3.9018064 0.01913864 -0.09621657 0.019392917
3.9017982 -19.615696 0 0.019508988 -0.09807854 0
3.8268304 -19.238789 -3.9018064 0.019138638 -0.09621657 -0.019392926
3.6047988 -18.122543 -7.6536694 0.018041275 -0.09069966 -0.03805372
3.2442305 -16.309856 -11.111404 0.016257644 -0.08173274 -0.055276114
2.7589931 -13.870397 -14.142136 0.013854167 -0.06964963 -0.07040589
2.1677246 -10.897898 -16.629393 0.010920653 -0.054901905 -0.08286446
1.4931552 -7.5066037 -18.47759 0.007567329 -0.0380434 -0.09217069
0.76120406 -3.8268318 -19.615705 0.0039208005 -0.01971074 -0.09795976
-1.4901161e-07 -3.9018037 19.615705 1.1932276e-10 -0.020096889 0.09795976
-1.0430813e-06 -7.6536665 18.47759 3.5856976e-10 -0.03878871 0.0921707
-1.937151e-06 -11.111399 16.629393 -9.938683e-09 -0.055977494 0.08286446
-2.9802322e-07 -14.142133 14.142136 -1.2476199e-08 -0.07101414 0.0704059
-2.0861626e-06 -16.629387 11.111404 -1.8024489e-08 -0.08333398 0.055276107
5.9604645e-07 -18.477585 7.6536694 -1.1310344e-08 -0.09247658 0.03805371
-2.682209e-06 -19.6157 3.9018064 -2.6975355e-08 -0.09810155 0.019392913
-6.556511e-06 -19.999987 0 -4.4811557e-08 -0.1 0
-2.682209e-06 -19.6157 -3.9018064 -2.6975355e-08 -0.09810155 -0.019392913
5.9604645e-07 -18.477585 -7.6536694 -1.1310344e-08 -0.09247658 -0.03805371
-2.0861626e-06 -16.629387 -11.111404 -1.8144652e-08 -0.08333398 -0.055276107
-2.9802322e-07 -14.142133 -14.142136 -1.2716126e-08 -0.07101415 -0.0704059
-1.937151e-06 -11.111399 -16.629393 9.579452e-09 -0.0559775 -0.082864456
-1.0430813e-06 -7.6536665 -18.47759 2.2231324e-08 -0.038788714 -0.0921707
-1.4901161e-07 -3.9018037 -19.615705 -2.684762e-09 -0.020096892 -0.09795976
-0.7612043 -3.8268316 19.615705 -0.003920877 -0.01971073 0.09795976
-1.4931573 -7.5066037 18.47759 -0.007567352 -0.03804339 0.09217069
-2.1677284 -10.897896 16.629393 -0.010920688 -0.054901905 0.082864456
-2.7589936 -13.870396 14.142136 -0.013854182 -0.06964963 0.0704059
-3.2442343 -16.309856 11.111404 -0.01625767 -0.081732735 0.055276107
-3.6047974 -18.122543 7.6536694 -0.018041296 -0.09069966 0.038053717
-3.8268356 -19.238789 3.9018064 -0.019138692 -0.09621656 0.019392906
-3.9018104 -19.61569 0 -0.019509075 -0.09807852 0
-3.8268356 -19.238789 -3.9018064 -0.019138692 -0.09621655 -0.019392904
-3.6047974 -18.122543 -7.6536694 -0.018041296 -0.09069966 -0.038053714
-3.2442343 -16.309856 -11.111404 -0.016257672 -0.08173274 -0.055276107
-2.7589936 -13.870396 -14.142136 -0.013854183 -0.06964964 -0.07040589
-2.1677284 -10.897896 -16.629393 -0.010920669 -0.054901917 -0.082864456
-1.4931573 -7.5066037 -18.47759 -0.0075673307 -0.03804339 -0.09217069
-0.7612043 -3.8268316 -19.615705 -0.003920808 -0.01971073 -0.09795976
-1.4931557 -3.6047964 19.615705 -0.0076907347 -0.018567106 0.09795976
-2.9289322 -7.071066 18.47759 -0.014843834 -0.0358361 0.09217068
-4.25215 -10.265593 16.629393 -0.021421686 -0.051716454 0.08286446
-5.4119596 -13.065626 14.142136 -0.027175948 -0.06560852 0.07040589
-6.3637924 -15.363548 11.111404 -0.031890556 -0.07699056 0.055276103
-7.071065 -17.071062 7.6536694 -0.03538926 -0.08543721 0.038053717
-7.506605 -18.122541 3.9018064 -0.037541863 -0.09063401 0.019392893
-7.65367 -18.477575 0 -0.03826838 -0.09238794 0
-7.506605 -18.122541 -3.9018064 -0.037541863 -0.09063401 -0.019392895
-7.071065 -17.071062 -7.6536694 -0.03538926 -0.08543721 -0.03805373
-6.3637924 -15.363548 -11.111404 -0.031890552 -0.07699055 -0.055276107
-5.4119596 -13.065626 -14.142136 -0.027175948 -0.06560852 -0.07040589
-4.25215 -10.265593 -16.629393 -0.021421684 -0.051716454 -0.08286446
-2.9289322 -7.071066 -18.47759 -0.014843834 -0.035836104 -0.09217068
-1.4931557 -3.6047964 -19.615705 -0.0076906993 -0.018567106 -0.097959764
-2.167726 -3.244231 19.615705 -0.0111652585 -0.016709954 0.09795976
-4.25215 -6.3637905 18.47759 -0.021549882 -0.032251634 0.09217068
-6.1731634 -9.238788 16.629393 -0.031099424 -0.04654358 0.08286448
-7.8569484 -11.758753 14.142136 -0.03945336 -0.059046097 0.070405886
-9.238792 -13.826827 11.111404 -0.046297897 -0.06928967 0.055276107
-10.2655945 -15.36355 7.6536694 -0.051377233 -0.07689145 0.038053717
-10.897902 -16.309855 3.9018064 -0.054502334 -0.08156846 0.019392887
-11.1114025 -16.629375 0 -0.05555707 -0.08314693 -5.05937e-09
-10.897902 -16.309855 -3.9018064 -0.054502334 -0.08156844 -0.019392895
-10.2655945 -15.36355 -7.6536694 -0.051377237 -0.076891445 -0.038053732
-9.238792 -13.826827 -11.111404 -0.04629789 -0.06928967 -0.055276107
-7.8569484 -11.758753 -14.142136 -0.03945335 -0.059046097 -0.07040589
-6.1731634 -9.238788 -16.629393 -0.031099424 -0.046543572 -0.08286448
-4.25215 -6.3637905 -18.47759 -0.02154988 -0.03225163 -0.09217068
-2.167726 -3.244231 -19.615705 -0.011165304 -0.016709952 -0.09795975
-2.7589917 -2.7589915 19.615705 -0.014210626 -0.014210641 0.097959764
-5.4119596 -5.4119587 18.47759 -0.027427781 -0.027427752 0.09217069
-7.856946 -7.856942 16.629393 -0.039582077 -0.039582055 0.08286446
-9.999998 -9.999998 14.142136 -0.050214596 -0.05021459 0.07040589
-11.758752 -11.758748 11.111404 -0.058926035 -0.058926005 0.055276122
-13.065624 -13.065625 7.6536694 -0.06539082 -0.06539079 0.03805374
-13.870396 -13.870391 3.9018064 -0.06936831 -0.06936825 0.019392878
-14.14213 -14.142118 0 -0.07071072 -0.07071064 -5.0593694e-09
-13.870396 -13.870391 -3.9018064 -0.06936831 -0.06936825 -0.019392882
-13.065624 -13.065625 -7.6536694 -0.06539082 -0.06539079 -0.038053732
-11.758752 -11.758748 -11.111404 -0.058926027 -0.058926012 -0.055276114
-9.999998 -9.999998 -14.142136 -0.05021457 -0.050214577 -0.0704059
-7.856946 -7.856942 -16.629393 -0.03958208 -0.03958205 -0.08286446
-5.4119596 -5.4119587 -18.47759 -0.027427807 -0.027427753 -0.092170686
-2.7589917 -2.7589915 -19.615705 -0.014210703 -0.014210639 -0.09795976
0 0 -20 8.787612e-09 -3.2927823e-09 -0.1
-3.244231 -2.1677256 19.615705 -0.016709862 -0.011165232 0.09795977
-6.3637915 -4.252148 18.47759 -0.032251637 -0.021549843 0.0921707
-9.2387905 -6.1731586 16.629393 -0.0465436 -0.031099407 0.08286446
-11.758753 -7.856947 14.142136 -0.05904611 -0.039453343 0.07040589
-13.826829 -9.238789 11.111404 -0.06928968 -0.046297867 0.055276114
-15.363549 -10.265596 7.6536694 -0.07689146 -0.051377226 0.03805374
-16.309858 -10.897894 3.9018064 -0.08156848 -0.054502286 0.019392867
-16.629383 -11.111388 0 -0.08314698 -0.05555699 0
-16.309858 -10.897894 -3.9018064 -0.08156848 -0.054502297 -0.019392867
-15.363549 -10.265596 -7.6536694 -0.07689146 -0.051377226 -0.038053732
-13.826829 -9.238789 -11.111404 -0.06928968 -0.046297867 -0.055276122
-11.758753 -7.856947 -14.142136 -0.059046097 -0.039453343 -0.0704059
-9.2387905 -6.1731586 -16.629393 -0.04654361 -0.031099407 -0.082864456
-6.3637915 -4.252148 -18.47759 -0.032251686 -0.021549843 -0.092170686
-3.244231 -2.1677256 -19.615705 -0.016709944 -0.0111652315 -0.097959764
-3.6047962 -1.493155 19.615705 -0.018567098 -0.0076907403 0.09795976
-7.0710654 -2.9289303 18.47759 -0.035836115 -0.014843784 0.09217068
-10.265593 -4.252145 16.629393 -0.051716458 -0.021421647 0.08286448
-13.065626 -5.411959 14.142136 -0.065608524 -0.027175939 0.0704059
-15.363548 -6.3637867 11.111404 -0.07699057 -0.031890523 0.055276114
-17.07106 -7.0710654 7.6536694 -0.08543721 -0.035389252 0.03805373
-18.122543 -7.5065975 3.9018064 -0.09063404 -0.037541818 0.019392861
-18.477577 -7.6536536 0 -0.092387974 -0.038268287 0
-18.122543 -7.5065975 -3.9018064 -0.09063404 -0.037541818 -0.019392861
-17.07106 -7.0710654 -7.6536694 -0.0854372 -0.035389252 -0.038053732
-15.363548 -6.3637867 -11.111404 -0.07699056 -0.031890523 -0.055276114
-13.065626 -5.411959 -14.142136 -0.06560852 -0.027175933 -0.07040589
-10.265593 -4.252145 -16.629393 -0.051716477 -0.021421647 -0.082864456
-7.0710654 -2.9289303 -18.47759 -0.03583615 -0.014843786 -0.09217068
-3.6047962 -1.493155 -19.615705 -0.018567128 -0.00769074 -0.09795976
-3.8268309 -0.76120365 19.615705 -0.019710721 -0.003920703 0.097959764
-7.5066023 -1.493155 18.47759 -0.038043424 -0.007567299 0.09217068
-10.897894 -2.167723 16.629393 -0.054901898 -0.010920659 0.08286446
-13.870396 -2.7589927 14.142136 -0.06964963 -0.013854167 0.07040591
-16.309855 -3.2442286 11.111404 -0.08173274 -0.01625764 0.055276107
-18.122541 -3.6047978 7.6536694 -0.09069966 -0.018041274 0.038053732
-19.238789 -3.8268278 3.9018064 -0.09621658 -0.01913864 0.01939286
-19.615688 -3.901794 0 -0.09807854 -0.019508988 0
-19.238789 -3.8268278 -3.9018064 -0.09621658 -0.01913864 -0.019392854
-18.122541 -3.6047978 -7.6536694 -0.09069965 -0.018041274 -0.038053732
-16.309855 -3.2442286 -11.111404 -0.08173274 -0.016257638 -0.055276114
-13.870396 -2.7589927 -14.142136 -0.06964963 -0.013854167 -0.0704059
-10.897894 -2.167723 -16.629393 -0.05490191 -0.010920661 -0.08286446
-7.5066023 -1.493155 -18.47759 -0.038043436 -0.0075673014 -0.09217068
-3.8268309 -0.76120365 -19.615705 -0.01971072 -0.003920703 -0.097959764
-3.901803 3.7252903e-07 19.615705 -0.020096874 6.861059e-10 0.097959764
-7.653665 1.0430813e-06 18.47759 -0.038788747 4.78093e-09 0.092170686
-11.111395 2.9802322e-06 16.629393 -0.055977494 2.3589402e-08 0.08286446
-14.142132 5.9604645e-07 14.142136 -0.07101415 1.8354411e-08 0.0704059
-16.629383 3.2782555e-06 11.111404 -0.08333398 3.1963427e-08 0.055276107
-18.477583 2.9802322e-07 7.6536694 -0.09247656 2.6471014e-08 0.03805373
-19.615696 5.364418e-06 3.9018064 -0.09810157 2.1435776e-08 0.01939286
-19.99998 8.940697e-06 0 -0.099999994 2.5537767e-08 -2.4092234e-10
-19.615696 5.364418e-06 -3.9018064 -0.09810157 2.1917478e-08 -0.01939286
-18.477583 2.9802322e-07 -7.6536694 -0.09247656 2.695231e-08 -0.03805373
-16.629383 3.2782555e-06 -11.111404 -0.083333984 3.208359e-08 -0.055276107
-14.142132 5.9604645e-07 -14.142136 -0.07101414 1.8354408e-08 -0.0704059
-11.111395 2.9802322e-06 -16.629393 -0.055977494 2.3349918e-08 -0.08286446
-7.653665 1.0430813e-06 -18.47759 -0.038788747 4.7211683e-09 -0.092170686
-3.901803 3.7252903e-07 -19.615705 -0.020096874 8.6509006e-10 -0.097959764
-3.8268306 0.76120436 19.615705 -0.01971075 0.003920714 0.09795976
-7.506602 1.493157 18.47759 -0.03804344 0.0075673186 0.09217068
-10.897893 2.1677287 16.629393 -0.054901905 0.010920691 0.08286446
-13.870394 2.7589939 14.142136 -0.06964962 0.013854197 0.07040589
-16.309853 3.2442353 11.111404 -0.081732735 0.016257688 0.055276107
-18.122541 3.604798 7.6536694 -0.09069965 0.018041316 0.03805373
-19.238785 3.8268378 3.9018064 -0.09621657 0.01913872 0.019392861
-19.615685 3.9018116 0 -0.09807852 0.019509098 0
-19.238785 3.8268378 -3.9018064 -0.09621656 0.01913872 -0.019392861
-18.122541 3.604798 -7.6536694 -0.09069965 0.018041316 -0.03805373
-16.309853 3.2442353 -11.111404 -0.081732735 0.016257688 -0.055276107
-13.870394 2.7589939 -14.142136 -0.06964962 0.013854197 -0.07040589
-10.897893 2.1677287 -16.629393 -0.054901894 0.01092069 -0.08286446
-7.506602 1.493157 -18.47759 -0.038043432 0.0075673186 -0.09217068
-3.8268306 0.76120436 -19.615705 -0.019710718 0.0039207134 -0.097959764
-3.6047957 1.4931557 19.615705 -0.018567126 0.0076907533 0.09795976
-7.071064 2.9289317 18.47759 -0.035836145 0.014843817 0.09217068
-10.265589 4.2521496 16.629393 -0.051716458 0.021421678 0.08286446
-13.065625 5.4119596 14.142136 -0.0656085 0.027175952 0.0704059
-15.363544 6.3637924 11.111404 -0.07699055 0.031890545 0.055276107
-17.07106 7.071065 7.6536694 -0.0854372 0.03538927 0.03805373
-18.122538 7.5066066 3.9018064 -0.09063401 0.037541904 0.019392854
-18.47757 7.65367 0 -0.09238792 0.038268413 0
-18.122538 7.5066066 -3.9018064 -0.09063401 0.037541904 -0.019392854
-17.07106 7.071065 -7.6536694 -0.0854372 0.03538927 -0.03805373
-15.363544 6.3637924 -11.111404 -0.07699055 0.03189055 -0.055276103
-13.065625 5.4119596 -14.142136 -0.0656085 0.027175952 -0.0704059
-10.265589 4.2521496 -16.629393 -0.051716447 0.021421678 -0.08286446
-7.071064 2.9289317 -18.47759 -0.035836134 0.014843819 -0.09217068
-3.6047957 1.4931557 -19.615705 -0.018567124 0.0076907524 -0.09795976
-3.2442303 2.1677258 19.615705 -0.016709872 0.011165243 0.09795978
-6.3637886 4.252149 18.47759 -0.032251664 0.021549873 0.09217068
-9.238785 6.173163 16.629393 -0.04654358 0.031099442 0.08286446
-11.758752 7.856948 14.142136 -0.059046097 0.03945336 0.07040591
-13.826823 9.238792 11.111404 -0.069289654 0.046297897 0.055276107
-15.363548 10.2655945 7.6536694 -0.076891445 0.051377244 0.038053732
-16.30985 10.897902 3.9018064 -0.08156846 0.054502346 0.019392854
-16.62937 11.111402 0 -0.08314693 0.055557083 0
-16.30985 10.897902 -3.9018064 -0.08156846 0.054502346 -0.019392854
-15.363548 10.2655945 -7.6536694 -0.076891445 0.051377244 -0.03805373
-13.826823 9.238792 -11.111404 -0.069289654 0.046297897 -0.055276107
-11.758752 7.856948 -14.142136 -0.0590461 0.039453357 -0.07040591
-9.238785 6.173163 -16.629393 -0.04654357 0.031099444 -0.08286448
-6.3637886 4.252149 -18.47759 -0.032251634 0.021549879 -0.09217069
-3.2442303 2.1677258 -19.615705 -0.016709918 0.011165242 -0.097959764
-2.7589908 2.7589915 19.615705 -0.014210636 0.014210655 0.097959764
-5.4119577 5.4119587 18.47759 -0.027427813 0.027427783 0.09217068
-7.856939 7.856945 16.629393 -0.039582063 0.039582074 0.08286446
-9.999996 9.999998 14.142136 -0.05021457 0.050214607 0.0704059
-11.758745 11.758751 11.111404 -0.058926012 0.058926046 0.055276103
-13.065623 13.065623 7.6536694 -0.0653908 0.06539081 0.03805373
-13.870387 13.870394 3.9018064 -0.06936827 0.0693683 0.01939286
-14.142114 14.142127 0 -0.07071065 0.07071071 0
-13.870387 13.870394 -3.9018064 -0.06936827 0.0693683 -0.01939286
-13.065623 13.065623 -7.6536694 -0.065390795 0.06539082 -0.038053732
-11.758745 11.758751 -11.111404 -0.058925997 0.058926042 -0.055276107
-9.999996 9.999998 -14.142136 -0.050214577 0.0502146 -0.07040589
-7.856939 7.856945 -16.629393 -0.039582048 0.039582074 -0.08286448
-5.4119577 5.4119587 -18.47759 -0.027427781 0.027427787 -0.092170686
-2.7589908 2.7589915 -19.615705 -0.014210685 0.014210656 -0.09795976
-2.167725 3.2442305 19.615705 -0.01116526 0.01670996 0.09795976
-4.252147 6.36379 18.47759 -0.021549886 0.03225166 0.092170686
-6.173156 9.238789 16.629393 -0.0310994 0.046543587 0.08286448
-7.856946 11.758753 14.142136 -0.03945334 0.059046116 0.07040589
-9.238786 13.826827 11.111404 -0.04629787 0.069289684 0.055276096
-10.265594 15.363548 7.6536694 -0.05137722 0.07689146 0.03805373
-10.897892 16.309856 3.9018064 -0.054502286 0.081568494 0.01939284
-11.111384 16.62938 0 -0.05555697 0.08314699 0
-10.897892 16.309856 -3.9018064 -0.054502286 0.081568494 -0.01939284
-10.265594 15.363548 -7.6536694 -0.051377214 0.07689146 -0.038053732
-9.238786 13.826827 -11.111404 -0.046297867 0.069289684 -0.055276107
-7.856946 11.758753 -14.142136 -0.039453343 0.05904612 -0.07040589
-6.173156 9.238789 -16.629393 -0.031099398 0.046543587 -0.08286448
-4.252147 6.36379 -18.47759 -0.021549879 0.03225166 -0.092170686
-2.167725 3.2442305 -19.615705 -0.011165284 0.01670996 -0.09795976
-1.4931548 3.6047955 19.615705 -0.007690643 0.01856711 0.09795977
-2.9289296 7.071065 18.47759 -0.014843784 0.035836134 0.092170686
-4.252142 10.26559 16.629393 -0.021421617 0.051716458 0.082864486
-5.411958 13.065626 14.142136 -0.027175939 0.065608524 0.0704059
-6.363784 15.363545 11.111404 -0.03189052 0.07699057 0.055276107
-7.0710635 17.07106 7.6536694 -0.035389233 0.08543721 0.038053717
-7.5065956 18.12254 3.9018064 -0.037541803 0.09063405 0.019392818
-7.653651 18.477571 0 -0.038268287 0.09238799 0
-7.5065956 18.12254 -3.9018064 -0.03754181 0.09063405 -0.019392818
-7.0710635 17.07106 -7.6536694 -0.035389233 0.08543721 -0.03805372
-6.363784 15.363545 -11.111404 -0.031890515 0.07699057 -0.055276107
-5.411958 13.065626 -14.142136 -0.027175928 0.065608524 -0.07040591
-4.252142 10.26559 -16.629393 -0.0214216 0.051716458 -0.082864486
-2.9289296 7.071065 -18.47759 -0.014843784 0.035836127 -0.092170686
-1.4931548 3.6047955 -19.615705 -0.007690684 0.018567108 -0.097959764
-0.7612035 3.8268301 19.615705 -0.0039207484 0.019710736 0.097959764
-1.4931546 7.506602 18.47759 -0.00756735 0.038043402 0.09217068
-2.1677208 10.89789 16.629393 -0.010920746 0.054901887 0.08286448
-2.7589915 13.870396 14.142136 -0.0138542475 0.06964962 0.070405886
-3.2442265 16.30985 11.111404 -0.016257707 0.081732735 0.055276092
-3.6047962 18.12254 7.6536694 -0.018041342 0.090699635 0.038053717
-3.8268266 19.238785 3.9018064 -0.01913879 0.096216545 0.0193929
-3.9017925 19.615685 0 -0.01950922 0.09807848 0
-3.8268266 19.238785 -3.9018064 -0.01913879 0.096216545 -0.0193929
-3.6047962 18.12254 -7.6536694 -0.018041342 0.090699635 -0.038053717
-3.2442265 16.30985 -11.111404 -0.016257707 0.081732735 -0.055276096
-2.7589915 13.870396 -14.142136 -0.0138541935 0.06964961 -0.070405915
-2.1677208 10.89789 -16.629393 -0.010920648 0.054901898 -0.08286448
-1.4931546 7.506602 -18.47759 -0.0075673084 0.038043432 -0.09217068
-0.7612035 3.8268301 -19.615705 -0.003920765 0.019710736 -0.09795976
2.9802322e-07 3.901802 19.615705 -9.599514e-08 0.020096881 0.097959764
1.3411045e-06 7.6536646 18.47759 -6.812825e-08 0.038788684 0.09217071
1.7881393e-06 14.142132 14.142136 -8.577387e-08 0.07101414 0.07040592
1.1920929e-06 18.477581 7.6536694 -1.2080403e-07 0.092476554 0.038053732
1.1920929e-06 18.477581 -7.6536694 -1.2080403e-07 0.092476554 -0.038053732
1.7881393e-06 14.142132 -14.142136 -8.541398e-08 0.0710141 -0.07040595
4.3213367e-06 11.111391 -16.629393 -1.03218575e-07 0.055977475 -0.082864486
1.3411045e-06 7.6536646 -18.47759 -6.729159e-08 0.038788736 -0.092170686
2.9802322e-07 3.901802 -19.615705 -2.6802871e-08 0.02009688 -0.097959764
