ply
format ascii 1.0
comment Created in Blender version 4.0.1
element vertex 576
property float x
property float y
property float z
property float nx
property float ny
property float nz
end_header
1.25 0 0 0.99999994 0 0
1.2165064 0 0.21422061 0.86867124 0 0.28906468
1.125 0 0.37104097 0.5080009 -3.087514e-10 0.5026106
1 0 0.42844123 0.010782975 0 0.5834766
0.875 0 0.37104097 -0.49182722 0 0.5080585
0.78349364 0 0.21422061 -0.86328053 0 0.294512
0.75 0 5.246892e-17 -0.9999999 0 1.1361836e-08
0.78349364 0 -0.21422061 -0.86328053 0 -0.294512
0.875 0 -0.37104097 -0.4918272 0 -0.5080585
1 0 -0.42844123 0.010782937 0 -0.5834766
1.125 0 -0.37104097 0.5080009 0 -0.5026107
1.2165064 0 -0.21422061 0.86867124 0 -0.28906468
1.2393061 0.16315772 0 0.99144477 0.13052666 0
1.206099 0.15878591 0.21422061 0.8612397 0.11338461 0.2890646
1.1153755 0.14684194 0.37104097 0.5036551 0.06630745 0.50261056
0.9914449 0.13052617 0.42844123 0.010690856 0.0014074623 0.5834766
0.86751425 0.1142104 0.37104097 -0.48761955 -0.06419626 0.5080585
0.77679074 0.10226642 0.21422061 -0.855895 -0.11268066 0.29451197
0.7435837 0.097894624 5.246892e-17 -0.9914448 -0.1305262 5.6809166e-09
0.77679074 0.10226642 -0.21422061 -0.8558949 -0.11268065 -0.29451197
0.86751425 0.1142104 -0.37104097 -0.48761955 -0.06419626 -0.5080584
0.9914449 0.13052617 -0.42844123 0.010690753 0.0014074624 -0.5834766
1.1153755 0.14684194 -0.37104097 0.503655 0.066307455 -0.5026106
1.206099 0.15878591 -0.21422061 0.8612397 0.11338461 -0.28906462
1.2074072 0.32352373 0 0.96592575 0.25881904 0
1.1750549 0.31485495 0.21422061 0.83907205 0.22482865 0.28906462
1.0866666 0.29117137 0.37104097 0.49069136 0.1314803 0.5026106
0.9659258 0.25881898 0.42844123 0.010415614 0.0027908515 0.5834766
0.8451851 0.22646661 0.37104097 -0.47506857 -0.12729424 0.5080585
0.7567967 0.20278303 0.21422061 -0.8338649 -0.22343339 0.294512
0.7244444 0.19411424 5.246892e-17 -0.96592575 -0.258819 -2.8404585e-09
0.7567967 0.20278303 -0.21422061 -0.8338649 -0.22343339 -0.29451197
0.8451851 0.22646661 -0.37104097 -0.4750686 -0.12729424 -0.5080584
0.9659258 0.25881898 -0.42844123 0.010415512 0.0027908566 -0.58347666
1.0866666 0.29117137 -0.37104097 0.49069127 0.1314803 -0.5026106
1.1750549 0.31485495 -0.21422061 0.83907205 0.22482865 -0.28906462
1.1548494 0.47835422 0 0.92387956 0.38268325 0
1.1239054 0.46553674 0.21422061 0.80254763 0.33242598 0.28906462
1.0393645 0.43051878 0.37104097 0.4693316 0.19440348 0.5026106
0.92387956 0.38268337 0.42844123 0.009962277 0.0041264324 0.5834766
0.8083946 0.33484796 0.37104097 -0.4543891 -0.1882143 0.5080584
0.72385377 0.29983 0.21422061 -0.79756707 -0.33036324 0.29451206
0.69290966 0.28701252 5.246892e-17 -0.92387944 -0.38268343 -1.1361834e-08
0.72385377 0.29983 -0.21422061 -0.797567 -0.33036324 -0.29451206
0.8083946 0.33484796 -0.37104097 -0.45438913 -0.18821433 -0.5080584
0.92387956 0.38268337 -0.42844123 0.009962277 0.0041264277 -0.5834766
1.0393645 0.43051878 -0.37104097 0.46933156 0.19440348 -0.5026107
1.1239054 0.46553674 -0.21422061 0.8025476 0.332426 -0.28906465
1.0825317 0.6250001 0 0.8660254 0.4999998 0
1.0535253 0.6082533 0.21422061 0.7522913 0.43433553 0.2890647
0.9742785 0.5625001 0.37104097 0.4399418 0.25400048 0.5026106
0.8660253 0.5000001 0.42844123 0.009338407 0.005391407 0.5834766
0.75777215 0.43750012 0.37104097 -0.42593494 -0.24591373 0.50805837
0.6785253 0.3917469 0.21422061 -0.7476228 -0.43164024 0.29451206
0.64951897 0.3750001 5.246892e-17 -0.86602527 -0.49999997 -8.5213765e-09
0.6785253 0.3917469 -0.21422061 -0.7476228 -0.4316402 -0.29451206
0.75777215 0.43750012 -0.37104097 -0.42593494 -0.24591374 -0.5080584
0.8660253 0.5000001 -0.42844123 0.00933842 0.005391399 -0.5834766
0.9742785 0.5625001 -0.37104097 0.4399418 0.25400046 -0.5026106
1.0535253 0.6082533 -0.21422061 0.7522913 0.43433553 -0.2890647
0.9916918 0.76095164 0 0.7933533 0.6087613 0
0.9651195 0.740562 0.21422061 0.68916315 0.5288135 0.28906468
0.89252263 0.6848565 0.37104097 0.40302435 0.3092516 0.50261056
0.79335344 0.6087613 0.42844123 0.008554661 0.0065643205 0.5834766
0.69418424 0.53266615 0.37104097 -0.39019287 -0.2994054 0.5080584
0.6215874 0.4769606 0.21422061 -0.68488646 -0.52553165 0.29451206
0.59501505 0.45657098 5.246892e-17 -0.7933533 -0.6087612 0
0.6215874 0.4769606 -0.21422061 -0.6848865 -0.5255317 -0.29451206
0.69418424 0.53266615 -0.37104097 -0.39019287 -0.2994054 -0.5080584
0.79335344 0.6087613 -0.42844123 0.008554676 0.0065643033 -0.5834766
0.89252263 0.6848565 -0.37104097 0.40302435 0.3092516 -0.50261056
0.9651195 0.740562 -0.21422061 0.68916315 0.52881366 -0.2890647
0.88388336 0.88388354 0 0.7071066 0.7071069 0
0.8601998 0.8601999 0.21422061 0.61424315 0.6142434 0.2890647
0.79549503 0.79549515 0.37104097 0.35921082 0.35921103 0.5026106
0.7071067 0.7071068 0.42844123 0.0076245326 0.0076247435 0.5834767
0.6187184 0.6187185 0.37104097 -0.34777436 -0.34777436 0.5080585
0.5540136 0.5540137 0.21422061 -0.6104313 -0.6104314 0.29451206
0.53033006 0.5303301 5.246892e-17 -0.7071067 -0.7071067 0
0.5540136 0.5540137 -0.21422061 -0.6104314 -0.61043143 -0.29451206
0.6187184 0.6187185 -0.37104097 -0.34777436 -0.34777436 -0.5080585
0.7071067 0.7071068 -0.42844123 0.007624606 0.007624724 -0.5834767
0.79549503 0.79549515 -0.37104097 0.35921097 0.35921106 -0.50261056
0.8601998 0.8601999 -0.21422061 0.6142432 0.6142434 -0.28906462
0.76095194 0.99169147 0 0.6087615 0.7933532 -9.8679834e-08
0.7405623 0.96511924 0.21422061 0.52881366 0.68916315 0.28906462
0.6848568 0.89252234 0.37104097 0.30925143 0.4030242 0.5026107
0.60876155 0.7933532 0.42844123 0.006564169 0.008554628 0.5834767
0.5326663 0.69418406 0.37104097 -0.29940557 -0.39019287 0.50805837
0.4769608 0.62158716 0.21422061 -0.52553195 -0.6848864 0.2945119
0.45657116 0.5950149 5.246892e-17 -0.60876155 -0.79335326 -4.5447337e-08
0.4769608 0.62158716 -0.21422061 -0.52553195 -0.6848864 -0.29451194
0.5326663 0.69418406 -0.37104097 -0.29940552 -0.39019284 -0.50805837
0.60876155 0.7933532 -0.42844123 0.0065642307 0.008554609 -0.5834767
0.6848568 0.89252234 -0.37104097 0.30925152 0.40302423 -0.50261056
0.7405623 0.96511924 -0.21422061 0.5288137 0.68916315 -0.28906465
0.62499994 1.0825318 0 0.50000006 0.86602527 -9.867984e-08
0.6082531 1.0535254 0.21422061 0.43433577 0.75229144 0.2890645
0.56249994 0.9742786 0.37104097 0.2540005 0.4399418 0.5026106
0.49999997 0.86602545 0.42844123 0.0053915614 0.009338332 0.5834766
0.43749997 0.75777227 0.37104097 -0.24591368 -0.42593488 0.5080584
0.3917468 0.67852545 0.21422061 -0.43164042 -0.74762267 0.29451194
0.37499997 0.6495191 5.246892e-17 -0.5000002 -0.8660252 -4.5447337e-08
0.3917468 0.67852545 -0.21422061 -0.43164042 -0.74762267 -0.294512
0.43749997 0.75777227 -0.37104097 -0.2459137 -0.42593482 -0.5080585
0.49999997 0.86602545 -0.42844123 0.005391488 0.009338278 -0.5834766
0.56249994 0.9742786 -0.37104097 0.25400048 0.43994173 -0.5026106
0.6082531 1.0535254 -0.21422061 0.43433574 0.7522914 -0.2890646
0.47835457 1.1548493 0 0.3826835 0.92387944 0
0.4655371 1.1239052 0.21422061 0.33242622 0.8025477 0.28906453
0.43051913 1.0393643 0.37104097 0.1944036 0.46933168 0.5026107
0.38268366 0.92387944 0.42844123 0.004126526 0.009962193 0.5834766
0.3348482 0.8083945 0.37104097 -0.18821414 -0.4543892 0.5080584
0.29983023 0.72385365 0.21422061 -0.3303632 -0.79756725 0.29451194
0.28701276 0.6929096 5.246892e-17 -0.38268346 -0.9238795 0
0.29983023 0.72385365 -0.21422061 -0.33036318 -0.79756725 -0.29451194
0.3348482 0.8083945 -0.37104097 -0.18821414 -0.4543891 -0.5080584
0.38268366 0.92387944 -0.42844123 0.004126433 0.00996211 -0.5834767
0.43051913 1.0393643 -0.37104097 0.19440363 0.46933165 -0.5026107
0.4655371 1.1239052 -0.21422061 0.33242625 0.8025477 -0.28906453
0.32352385 1.2074072 0 0.25881916 0.96592575 0
0.31485504 1.1750549 0.21422061 0.22482878 0.83907205 0.28906462
0.29117146 1.0866666 0.37104097 0.13148043 0.4906913 0.50261056
0.25881907 0.9659258 0.42844123 0.002790896 0.010415649 0.58347666
0.22646669 0.8451851 0.37104097 -0.12729424 -0.4750685 0.5080585
0.2027831 0.7567967 0.21422061 -0.22343342 -0.8338648 0.29451197
0.1941143 0.7244444 5.246892e-17 -0.25881895 -0.96592575 0
0.2027831 0.7567967 -0.21422061 -0.22343338 -0.8338648 -0.29451197
0.22646669 0.8451851 -0.37104097 -0.1272942 -0.47506848 -0.5080585
0.25881907 0.9659258 -0.42844123 0.0027909104 0.010415614 -0.5834766
0.29117146 1.0866666 -0.37104097 0.13148044 0.49069127 -0.5026106
0.31485504 1.1750549 -0.21422061 0.22482878 0.8390719 -0.28906465
0.16315751 1.2393061 0 0.13052614 0.99144477 0
0.15878572 1.206099 0.21422061 0.113384284 0.8612397 0.28906468
0.14684176 1.1153755 0.37104097 0.066307366 0.5036548 0.50261074
0.130526 0.9914449 0.42844123 0.0014074483 0.010690749 0.5834766
0.114210255 0.86751425 0.37104097 -0.06419633 -0.4876195 0.5080585
0.1022663 0.77679074 0.21422061 -0.11268067 -0.855895 0.29451206
0.097894505 0.7435837 5.246892e-17 -0.1305261 -0.9914448 0
0.1022663 0.77679074 -0.21422061 -0.11268065 -0.8558949 -0.29451197
0.114210255 0.86751425 -0.37104097 -0.06419628 -0.48761946 -0.50805855
0.130526 0.9914449 -0.42844123 0.0014074893 0.010690767 -0.5834766
0.14684176 1.1153755 -0.37104097 0.06630736 0.5036548 -0.50261074
0.15878572 1.206099 -0.21422061 0.113384284 0.8612397 -0.28906468
9.4372375e-08 1.25 0 -2.3377531e-07 0.99999994 0
9.1843674e-08 1.2165064 0.21422061 -2.370497e-07 0.8686715 0.28906447
8.493514e-08 1.125 0.37104097 -1.6888704e-07 0.508001 0.5026106
7.54979e-08 1 0.42844123 -5.8624217e-08 0.010782941 0.5834766
6.6060664e-08 0.875 0.37104097 -5.742023e-08 -0.4918272 0.5080585
5.9152125e-08 0.78349364 0.21422061 -3.654332e-08 -0.86328053 0.29451194
5.6623428e-08 0.75 5.246892e-17 2.190545e-08 -0.99999994 0
5.9152125e-08 0.78349364 -0.21422061 -3.654332e-08 -0.8632806 -0.29451194
6.6060664e-08 0.875 -0.37104097 -6.16962e-08 -0.4918271 -0.5080585
7.54979e-08 1 -0.42844123 -6.568367e-08 0.0107830055 -0.5834766
8.493514e-08 1.125 -0.37104097 -1.7290081e-07 0.508001 -0.5026106
9.1843674e-08 1.2165064 -0.21422061 -2.370497e-07 0.8686715 -0.28906447
-0.16315791 1.239306 0 -0.13052605 0.99144477 0
-0.15878612 1.2060989 0.21422061 -0.11338423 0.8612397 0.2890647
-0.14684212 1.1153754 0.37104097 -0.06630735 0.503655 0.50261056
-0.13052633 0.9914448 0.42844123 -0.0014074416 0.010690705 0.5834766
-0.114210546 0.86751425 0.37104097 0.064196296 -0.4876195 0.5080585
-0.10226655 0.77679074 0.21422061 0.11268069 -0.855895 0.29451197
-0.09789475 0.7435836 5.246892e-17 0.13052619 -0.9914448 0
-0.10226655 0.77679074 -0.21422061 0.11268069 -0.85589504 -0.29451197
-0.114210546 0.86751425 -0.37104097 0.06419632 -0.48761946 -0.5080585
-0.13052633 0.9914448 -0.42844123 -0.00140747 0.01069075 -0.58347666
-0.14684212 1.1153754 -0.37104097 -0.06630741 0.503655 -0.50261056
-0.15878612 1.2060989 -0.21422061 -0.113384254 0.8612397 -0.2890647
-0.32352364 1.2074074 0 -0.25881878 0.9659259 0
-0.31485486 1.175055 0.21422061 -0.22482844 0.8390719 0.28906474
-0.29117128 1.0866666 0.37104097 -0.13148016 0.49069113 0.5026107
-0.25881892 0.9659259 0.42844123 -0.0027907852 0.010415565 0.5834766
-0.22646657 0.84518516 0.37104097 0.12729426 -0.47506857 0.5080585
-0.20278297 0.7567968 0.21422061 0.2234335 -0.833865 0.29451194
-0.1941142 0.7244444 5.246892e-17 0.25881904 -0.96592575 0
-0.20278297 0.7567968 -0.21422061 0.2234335 -0.8338649 -0.29451194
-0.22646657 0.84518516 -0.37104097 0.12729427 -0.4750686 -0.5080585
-0.25881892 0.9659259 -0.42844123 -0.0027908678 0.010415566 -0.58347666
-0.29117128 1.0866666 -0.37104097 -0.13148025 0.49069113 -0.5026107
-0.31485486 1.175055 -0.21422061 -0.22482844 0.8390719 -0.28906474
-0.4783544 1.1548494 0 -0.3826834 0.92387944 0
-0.46553692 1.1239053 0.21422061 -0.33242607 0.8025476 0.2890647
-0.43051895 1.0393645 0.37104097 -0.19440363 0.46933192 0.5026105
-0.38268352 0.9238795 0.42844123 -0.004126433 0.009962071 0.5834767
-0.33484808 0.80839455 0.37104097 0.18821418 -0.4543892 0.50805837
-0.2998301 0.7238537 0.21422061 0.33036315 -0.79756707 0.294512
-0.28701264 0.6929096 5.246892e-17 0.38268337 -0.9238795 8.23733e-08
-0.2998301 0.7238537 -0.21422061 0.33036318 -0.7975672 -0.29451197
-0.33484808 0.80839455 -0.37104097 0.18821414 -0.4543892 -0.50805837
-0.38268352 0.9238795 -0.42844123 -0.004126477 0.009962105 -0.5834767
-0.43051895 1.0393645 -0.37104097 -0.19440362 0.46933192 -0.50261056
-0.46553692 1.1239053 -0.21422061 -0.33242607 0.80254763 -0.2890647
-0.6249998 1.0825319 0 -0.49999997 0.8660253 0
-0.608253 1.0535256 0.21422061 -0.43433565 0.7522913 0.2890647
-0.5624998 0.9742787 0.37104097 -0.25400066 0.43994185 0.50261056
-0.49999985 0.8660255 0.42844123 -0.0053915544 0.009338239 0.5834766
-0.43749988 0.7577723 0.37104097 0.2459136 -0.42593497 0.5080585
-0.3917467 0.67852545 0.21422061 0.43164018 -0.74762267 0.29451212
-0.37499988 0.64951915 5.246892e-17 0.49999994 -0.86602527 8.23733e-08
-0.3917467 0.67852545 -0.21422061 0.43164018 -0.7476228 -0.29451206
-0.43749988 0.7577723 -0.37104097 0.24591357 -0.42593494 -0.5080585
-0.49999985 0.8660255 -0.42844123 -0.0053915023 0.009338253 -0.5834766
-0.5624998 0.9742787 -0.37104097 -0.25400057 0.43994182 -0.50261056
-0.608253 1.0535256 -0.21422061 -0.43433565 0.7522913 -0.2890647
-0.76095176 0.99169165 0 -0.6087615 0.79335326 5.2242267e-08
-0.74056214 0.96511936 0.21422061 -0.52881354 0.6891632 0.28906468
-0.6848566 0.89252245 0.37104097 -0.3092514 0.40302426 0.50261056
-0.6087614 0.7933533 0.42844123 -0.006564317 0.008554771 0.58347666
-0.53266627 0.6941842 0.37104097 0.29940543 -0.39019266 0.50805855
-0.47696072 0.6215873 0.21422061 0.5255319 -0.6848862 0.2945121
-0.45657107 0.595015 5.246892e-17 0.60876155 -0.7933531 -4.2606878e-08
-0.47696072 0.6215873 -0.21422061 0.5255319 -0.6848862 -0.2945121
-0.53266627 0.6941842 -0.37104097 0.29940546 -0.3901927 -0.5080585
-0.6087614 0.7933533 -0.42844123 -0.0065642893 0.008554735 -0.5834766
-0.6848566 0.89252245 -0.37104097 -0.3092514 0.40302426 -0.50261056
-0.74056214 0.96511936 -0.21422061 -0.52881354 0.6891632 -0.28906465
-0.8838837 0.88388324 0 -0.70710695 0.7071065 5.2242278e-08
-0.8602001 0.8601997 0.21422061 -0.61424345 0.6142431 0.28906468
-0.79549533 0.7954949 0.37104097 -0.35921094 0.3592109 0.5026106
-0.70710695 0.7071066 0.42844123 -0.0076246797 0.007624778 0.58347666
-0.61871856 0.61871827 0.37104097 0.3477744 -0.34777433 0.5080585
-0.5540138 0.5540135 0.21422061 0.61043143 -0.61043143 0.29451206
-0.5303302 0.53032994 5.246892e-17 0.70710665 -0.7071067 -4.2606878e-08
-0.5540138 0.5540135 -0.21422061 0.61043143 -0.61043143 -0.29451206
-0.61871856 0.61871827 -0.37104097 0.34777442 -0.3477744 -0.5080585
-0.70710695 0.7071066 -0.42844123 -0.0076247086 0.007624743 -0.5834766
-0.79549533 0.7954949 -0.37104097 -0.35921097 0.35921085 -0.5026106
-0.8602001 0.8601997 -0.21422061 -0.61424345 0.61424315 -0.28906462
-0.99169165 0.76095176 0 -0.79335326 0.60876137 0
-0.96511936 0.74056214 0.21422061 -0.68916315 0.5288135 0.2890647
-0.89252245 0.6848566 0.37104097 -0.40302414 0.30925125 0.5026107
-0.7933533 0.6087614 0.42844123 -0.008554696 0.006564203 0.5834766
-0.6941842 0.53266627 0.37104097 0.3901928 -0.29940552 0.5080585
-0.6215873 0.47696072 0.21422061 0.68488634 -0.5255319 0.29451206
-0.595015 0.45657107 5.246892e-17 0.79335314 -0.6087615 0
-0.6215873 0.47696072 -0.21422061 0.68488634 -0.5255319 -0.29451206
-0.6941842 0.53266627 -0.37104097 0.3901928 -0.29940552 -0.5080585
-0.7933533 0.6087614 -0.42844123 -0.008554726 0.0065642036 -0.58347666
-0.89252245 0.6848566 -0.37104097 -0.4030243 0.30925134 -0.5026106
-0.96511936 0.74056214 -0.21422061 -0.68916327 0.52881354 -0.28906465
-1.0825316 0.6250003 0 -0.86602515 0.50000024 -2.6121139e-08
-1.0535252 0.6082535 0.21422061 -0.7522912 0.43433595 0.28906468
-0.97427845 0.56250024 0.37104097 -0.43994182 0.25400063 0.50261056
-0.86602527 0.50000024 0.42844123 -0.009338382 0.0053914953 0.5834766
-0.7577721 0.4375002 0.37104097 0.42593494 -0.24591361 0.5080584
-0.67852527 0.391747 0.21422061 0.7476228 -0.43164015 0.29451197
-0.64951897 0.37500018 5.246892e-17 0.86602545 -0.49999994 0
-0.67852527 0.391747 -0.21422061 0.7476228 -0.43164015 -0.29451206
-0.7577721 0.4375002 -0.37104097 0.4259349 -0.24591361 -0.5080585
-0.86602527 0.50000024 -0.42844123 -0.009338343 0.005391505 -0.5834766
-0.97427845 0.56250024 -0.37104097 -0.4399418 0.2540007 -0.50261056
-1.0535252 0.6082535 -0.21422061 -0.7522912 0.4343359 -0.2890647
-1.1548494 0.47835436 0 -0.9238794 0.38268363 -4.063288e-08
-1.1239053 0.4655369 0.21422061 -0.80254745 0.33242628 0.28906462
-1.0393645 0.43051893 0.37104097 -0.46933177 0.19440374 0.50261056
-0.9238795 0.3826835 0.42844123 -0.009962169 0.0041265064 0.58347666
-0.80839455 0.33484805 0.37104097 0.45438907 -0.1882142 0.5080585
-0.7238537 0.29983008 0.21422061 0.79756695 -0.33036327 0.2945121
-0.6929096 0.2870126 5.246892e-17 0.92387927 -0.38268372 8.5213765e-09
-0.7238537 0.29983008 -0.21422061 0.79756695 -0.3303633 -0.29451212
-0.80839455 0.33484805 -0.37104097 0.45438915 -0.18821418 -0.5080585
-0.9238795 0.3826835 -0.42844123 -0.0099621285 0.0041265134 -0.5834766
-1.0393645 0.43051893 -0.37104097 -0.46933174 0.19440375 -0.5026106
-1.1239053 0.4655369 -0.21422061 -0.80254745 0.33242628 -0.28906468
-1.2074074 0.32352364 0 -0.96592575 0.25881892 -2.9023486e-09
-1.175055 0.31485486 0.21422061 -0.8390719 0.2248285 0.28906465
-1.0866666 0.29117128 0.37104097 -0.49069124 0.1314802 0.5026107
-0.9659259 0.25881892 0.42844123 -0.010415595 0.0027908492 0.58347666
-0.84518516 0.22646657 0.37104097 0.4750686 -0.12729432 0.5080585
-0.7567968 0.20278297 0.21422061 0.8338648 -0.22343348 0.29451212
-0.7244444 0.1941142 5.246892e-17 0.96592575 -0.25881895 8.5213765e-09
-0.7567968 0.20278297 -0.21422061 0.8338648 -0.22343348 -0.29451212
-0.84518516 0.22646657 -0.37104097 0.4750686 -0.1272943 -0.5080585
-0.9659259 0.25881892 -0.42844123 -0.010415624 0.0027908504 -0.5834766
-1.0866666 0.29117128 -0.37104097 -0.49069127 0.1314802 -0.5026106
-1.175055 0.31485486 -0.21422061 -0.83907205 0.2248285 -0.28906465
-1.239306 0.1631579 0 -0.9914448 0.1305261 8.707044e-09
-1.2060989 0.1587861 0.21422061 -0.8612396 0.113384366 0.2890647
-1.1153754 0.1468421 0.37104097 -0.5036549 0.06630745 0.5026107
-0.9914448 0.13052632 0.42844123 -0.010690714 0.0014073958 0.5834766
-0.86751425 0.11421053 0.37104097 0.48761967 -0.06419635 0.5080585
-0.77679074 0.10226654 0.21422061 0.855895 -0.11268063 0.29451206
-0.7435836 0.09789474 5.246892e-17 0.9914448 -0.13052607 0
-0.77679074 0.10226654 -0.21422061 0.855895 -0.11268063 -0.29451206
-0.86751425 0.11421053 -0.37104097 0.4876196 -0.06419635 -0.5080585
-0.9914448 0.13052632 -0.42844123 -0.010690704 0.0014073966 -0.5834766
-1.1153754 0.1468421 -0.37104097 -0.50365484 0.06630744 -0.5026106
-1.2060989 0.1587861 -0.21422061 -0.8612396 0.11338435 -0.28906468
-1.25 1.09278474e-07 0 -0.9999999 4.7252463e-08 0
-1.2165064 1.0635036e-07 0.21422061 -0.86867124 4.0956227e-08 0.28906462
-1.125 9.8350625e-08 0.37104097 -0.508001 2.346511e-08 0.50261056
-1 8.742278e-08 0.42844123 -0.010783045 -3.0693306e-10 0.5834766
-0.875 7.649493e-08 0.37104097 0.49182725 -1.9547311e-08 0.5080585
-0.78349364 6.849519e-08 0.21422061 0.86328036 -3.4107092e-08 0.294512
-0.75 6.556708e-08 5.246892e-17 0.9999999 -4.1376964e-08 0
-0.78349364 6.849519e-08 -0.21422061 0.8632804 -3.4107096e-08 -0.29451206
-0.875 7.649493e-08 -0.37104097 0.4918273 -1.9547311e-08 -0.5080585
-1 8.742278e-08 -0.42844123 -0.010782937 1.2277322e-09 -0.5834766
-1.125 9.8350625e-08 -0.37104097 -0.50800097 2.2230106e-08 -0.5026106
-1.2165064 1.0635036e-07 -0.21422061 -0.86867124 4.0956227e-08 -0.28906462
-1.239306 -0.1631579 0 -0.9914448 -0.13052605 -2.9023481e-09
-1.2060989 -0.1587861 0.21422061 -0.8612396 -0.113384336 0.2890647
-1.1153754 -0.1468421 0.37104097 -0.50365496 -0.066307425 0.5026106
-0.9914448 -0.13052632 0.42844123 -0.010690769 -0.0014073974 0.58347666
-0.86751425 -0.11421053 0.37104097 0.4876196 0.064196326 0.5080584
-0.77679074 -0.10226654 0.21422061 0.8558949 0.11268059 0.29451206
-0.7435836 -0.09789474 5.246892e-17 0.9914448 0.13052605 2.840459e-09
-0.77679074 -0.10226654 -0.21422061 0.8558949 0.11268059 -0.29451206
-0.86751425 -0.11421053 -0.37104097 0.4876197 0.06419632 -0.5080584
-0.9914448 -0.13052632 -0.42844123 -0.010690622 -0.0014073963 -0.5834767
-1.1153754 -0.1468421 -0.37104097 -0.5036549 -0.066307425 -0.5026107
-1.2060989 -0.1587861 -0.21422061 -0.8612397 -0.113384336 -0.28906468
-1.2074074 -0.32352364 0 -0.9659258 -0.25881878 -2.9023486e-09
-1.175055 -0.31485486 0.21422061 -0.8390721 -0.22482836 0.28906468
-1.0866666 -0.29117128 0.37104097 -0.4906913 -0.13148004 0.5026107
-0.9659259 -0.25881892 0.42844123 -0.010415599 -0.0027907558 0.5834766
-0.84518516 -0.22646657 0.37104097 0.47506863 0.12729423 0.5080585
-0.7567968 -0.20278297 0.21422061 0.8338648 0.22343336 0.29451206
-0.7244444 -0.1941142 5.246892e-17 0.96592575 0.2588189 2.840459e-09
-0.7567968 -0.20278297 -0.21422061 0.8338648 0.22343332 -0.29451206
-0.84518516 -0.22646657 -0.37104097 0.47506863 0.12729424 -0.5080584
-0.9659259 -0.25881892 -0.42844123 -0.010415507 -0.0027907547 -0.5834767
-1.0866666 -0.29117128 -0.37104097 -0.49069118 -0.13148002 -0.5026107
-1.175055 -0.31485486 -0.21422061 -0.8390721 -0.22482836 -0.28906465
-1.1548496 -0.47835383 0 -0.9238794 -0.38268352 0
-1.1239055 -0.4655364 0.21422061 -0.8025475 -0.33242595 0.2890647
-1.0393647 -0.43051845 0.37104097 -0.4693318 -0.19440342 0.5026106
-0.9238797 -0.38268307 0.42844123 -0.00996211 -0.0041265287 0.58347666
-0.80839473 -0.3348477 0.37104097 0.45438915 0.18821402 0.5080585
-0.7238538 -0.29982975 0.21422061 0.79756725 0.33036298 0.294512
-0.6929098 -0.2870123 5.246892e-17 0.9238795 0.38268322 0
-0.7238538 -0.29982975 -0.21422061 0.79756725 0.330363 -0.29451206
-0.80839473 -0.3348477 -0.37104097 0.4543891 0.18821402 -0.5080585
-0.9238797 -0.38268307 -0.42844123 -0.009962134 -0.0041265236 -0.5834766
-1.0393647 -0.43051845 -0.37104097 -0.4693318 -0.19440342 -0.5026106
-1.1239055 -0.4655364 -0.21422061 -0.8025475 -0.33242595 -0.2890647
-1.0825319 -0.62499976 0 -0.86602527 -0.50000006 0
-1.0535256 -0.60825294 0.21422061 -0.7522913 -0.43433565 0.2890647
-0.9742787 -0.5624998 0.37104097 -0.4399418 -0.25400063 0.5026106
-0.8660255 -0.49999982 0.42844123 -0.0093384115 -0.0053916033 0.5834766
-0.7577723 -0.43749985 0.37104097 0.42593488 0.24591343 0.5080585
-0.67852545 -0.39174667 0.21422061 0.74762297 0.43163994 0.29451206
-0.64951915 -0.37499988 5.246892e-17 0.8660256 0.49999964 1.7042751e-08
-0.67852545 -0.39174667 -0.21422061 0.74762297 0.43163994 -0.29451206
-0.7577723 -0.43749985 -0.37104097 0.42593482 0.24591342 -0.5080585
-0.8660255 -0.49999982 -0.42844123 -0.0093384655 -0.005391596 -0.5834766
-0.9742787 -0.5624998 -0.37104097 -0.4399418 -0.2540006 -0.50261056
-1.0535256 -0.60825294 -0.21422061 -0.75229126 -0.43433565 -0.28906474
-0.99169165 -0.76095176 0 -0.7933535 -0.6087612 0
-0.96511936 -0.74056214 0.21422061 -0.6891632 -0.5288135 0.28906465
-0.89252245 -0.6848566 0.37104097 -0.40302426 -0.3092514 0.50261056
-0.7933533 -0.6087614 0.42844123 -0.008554759 -0.006564203 0.5834766
-0.6941842 -0.53266627 0.37104097 0.39019272 0.2994054 0.5080585
-0.6215873 -0.47696072 0.21422061 0.68488634 0.52553195 0.29451206
-0.595015 -0.45657107 5.246892e-17 0.7933531 0.60876167 -1.7042751e-08
-0.6215873 -0.47696072 -0.21422061 0.6848863 0.52553177 -0.2945121
-0.6941842 -0.53266627 -0.37104097 0.39019272 0.29940537 -0.50805855
-0.7933533 -0.6087614 -0.42844123 -0.00855476 -0.006564196 -0.58347666
-0.89252245 -0.6848566 -0.37104097 -0.40302426 -0.3092514 -0.50261056
-0.96511936 -0.74056214 -0.21422061 -0.6891632 -0.5288135 -0.28906465
-0.8838837 -0.88388324 0 -0.70710707 -0.7071064 0
-0.8602001 -0.8601997 0.21422061 -0.6142436 -0.61424303 0.28906462
-0.79549533 -0.7954949 0.37104097 -0.35921112 -0.35921073 0.5026107
-0.70710695 -0.7071066 0.42844123 -0.0076246653 -0.00762467 0.5834767
-0.61871856 -0.61871827 0.37104097 0.3477745 0.3477743 0.5080584
-0.5540138 -0.5540135 0.21422061 0.6104316 0.6104313 0.29451197
-0.5303302 -0.53032994 5.246892e-17 0.7071069 0.7071066 5.680917e-09
-0.5540138 -0.5540135 -0.21422061 0.6104316 0.6104314 -0.294512
-0.61871856 -0.61871827 -0.37104097 0.3477745 0.3477743 -0.5080584
-0.70710695 -0.7071066 -0.42844123 -0.0076246355 -0.0076246355 -0.5834767
-0.79549533 -0.7954949 -0.37104097 -0.3592111 -0.3592107 -0.5026107
-0.8602001 -0.8601997 -0.21422061 -0.6142436 -0.61424303 -0.28906462
-0.7609523 -0.9916913 0 -0.60876167 -0.7933531 0
-0.7405627 -0.965119 0.21422061 -0.5288137 -0.68916297 0.2890647
-0.6848571 -0.89252216 0.37104097 -0.30925152 -0.40302417 0.5026107
-0.60876185 -0.793353 0.42844123 -0.0065642884 -0.008554847 0.5834766
-0.5326666 -0.6941839 0.37104097 0.29940557 0.39019257 0.5080585
-0.47696105 -0.62158704 0.21422061 0.5255321 0.68488604 0.29451206
-0.4565714 -0.59501475 5.246892e-17 0.6087618 0.793353 4.2606878e-08
-0.47696105 -0.62158704 -0.21422061 0.5255321 0.6848861 -0.29451206
-0.5326666 -0.6941839 -0.37104097 0.29940557 0.3901926 -0.5080585
-0.60876185 -0.793353 -0.42844123 -0.006564282 -0.008554774 -0.5834766
-0.6848571 -0.89252216 -0.37104097 -0.30925155 -0.4030242 -0.5026106
-0.7405627 -0.965119 -0.21422061 -0.5288137 -0.6891631 -0.28906468
-0.6249998 -1.0825319 0 -0.5 -0.86602527 0
-0.608253 -1.0535256 0.21422061 -0.43433562 -0.75229126 0.28906476
-0.5624998 -0.9742787 0.37104097 -0.25400057 -0.4399419 0.50261056
-0.49999985 -0.8660255 0.42844123 -0.005391586 -0.009338407 0.5834766
-0.43749988 -0.7577723 0.37104097 0.24591354 0.42593482 0.50805855
-0.3917467 -0.67852545 0.21422061 0.4316402 0.7476227 0.29451206
-0.37499988 -0.64951915 5.246892e-17 0.49999997 0.8660254 0
-0.3917467 -0.67852545 -0.21422061 0.43164018 0.74762267 -0.2945121
-0.43749988 -0.7577723 -0.37104097 0.24591355 0.42593476 -0.50805855
-0.49999985 -0.8660255 -0.42844123 -0.005391564 -0.009338397 -0.5834766
-0.5624998 -0.9742787 -0.37104097 -0.25400063 -0.4399419 -0.50261056
-0.608253 -1.0535256 -0.21422061 -0.43433565 -0.7522913 -0.28906474
-0.4783544 -1.1548494 0 -0.38268346 -0.92387956 0
-0.46553692 -1.1239053 0.21422061 -0.3324261 -0.80254763 0.2890646
-0.43051895 -1.0393645 0.37104097 -0.19440362 -0.46933195 0.5026105
-0.38268352 -0.9238795 0.42844123 -0.004126501 -0.009962148 0.5834766
-0.33484808 -0.80839455 0.37104097 0.18821418 0.45438918 0.50805837
-0.2998301 -0.7238537 0.21422061 0.33036318 0.797567 0.29451206
-0.28701264 -0.6929096 5.246892e-17 0.38268346 0.9238794 0
-0.2998301 -0.7238537 -0.21422061 0.33036318 0.797567 -0.29451206
-0.33484808 -0.80839455 -0.37104097 0.1882142 0.45438918 -0.50805837
-0.38268352 -0.9238795 -0.42844123 -0.0041264542 -0.009962118 -0.5834766
-0.43051895 -1.0393645 -0.37104097 -0.19440366 -0.46933192 -0.50261056
-0.46553692 -1.1239053 -0.21422061 -0.33242613 -0.80254763 -0.28906462
-0.3235242 -1.2074072 0 -0.25881934 -0.9659256 0
-0.31485543 -1.1750548 0.21422061 -0.224829 -0.8390719 0.28906465
-0.2911718 -1.0866665 0.37104097 -0.13148049 -0.4906913 0.50261056
-0.25881937 -0.96592575 0.42844123 -0.0027908012 -0.01041555 0.5834766
-0.22646695 -0.84518504 0.37104097 0.12729448 0.4750687 0.5080584
-0.20278333 -0.75679666 0.21422061 0.22343373 0.8338647 0.29451206
-0.19411454 -0.7244443 5.246892e-17 0.2588193 0.9659257 0
-0.20278333 -0.75679666 -0.21422061 0.2234337 0.83386475 -0.2945121
-0.22646695 -0.84518504 -0.37104097 0.12729444 0.4750687 -0.5080584
-0.25881937 -0.96592575 -0.42844123 -0.0027908222 -0.010415492 -0.5834767
-0.2911718 -1.0866665 -0.37104097 -0.13148052 -0.4906913 -0.50261056
-0.31485543 -1.1750548 -0.21422061 -0.22482902 -0.8390719 -0.28906465
-0.16315849 -1.239306 0 -0.13052647 -0.99144477 0
-0.15878668 -1.2060989 0.21422061 -0.11338463 -0.8612397 0.28906462
-0.14684264 -1.1153754 0.37104097 -0.066307604 -0.5036551 0.50261056
-0.1305268 -0.99144477 0.42844123 -0.0014073908 -0.0106906295 0.5834766
-0.11421095 -0.8675142 0.37104097 0.06419656 0.48761973 0.50805837
-0.102266915 -0.7767907 0.21422061 0.11268101 0.8558949 0.29451212
-0.0978951 -0.74358356 5.246892e-17 0.13052651 0.99144477 0
-0.102266915 -0.7767907 -0.21422061 0.11268101 0.8558949 -0.2945121
-0.11421095 -0.8675142 -0.37104097 0.064196505 0.48761973 -0.50805837
-0.1305268 -0.99144477 -0.42844123 -0.0014074598 -0.0106906295 -0.5834766
-0.14684264 -1.1153754 -0.37104097 -0.06630762 -0.50365514 -0.50261056
-0.15878668 -1.2060989 -0.21422061 -0.11338462 -0.8612397 -0.28906462
9.4372375e-08 -1.25 0 -1.2186158e-07 -0.99999994 0
9.1843674e-08 -1.2165064 0.21422061 -1.3279747e-07 -0.8686714 0.2890645
8.493514e-08 -1.125 0.37104097 -9.880046e-08 -0.5080009 0.5026106
7.54979e-08 -1 0.42844123 -2.0871449e-08 -0.01078303 0.5834766
6.6060664e-08 -0.875 0.37104097 2.5655847e-08 0.49182725 0.5080584
5.9152125e-08 -0.78349364 0.21422061 1.1937482e-07 0.8632804 0.29451197
5.6623428e-08 -0.75 5.246892e-17 1.9471511e-07 0.99999994 0
5.9152125e-08 -0.78349364 -0.21422061 1.169386e-07 0.8632804 -0.29451197
6.6060664e-08 -0.875 -0.37104097 2.0463592e-08 0.4918273 -0.5080584
7.54979e-08 -1 -0.42844123 -2.823784e-08 -0.010783 -0.5834766
8.493514e-08 -1.125 -0.37104097 -9.1390426e-08 -0.5080009 -0.5026106
9.1843674e-08 -1.2165064 -0.21422061 -1.216276e-07 -0.8686715 -0.2890645
0.16315751 -1.2393061 0 0.13052596 -0.9914448 0
0.15878572 -1.206099 0.21422061 0.11338417 -0.8612397 0.28906465
0.14684176 -1.1153755 0.37104097 0.06630732 -0.5036548 0.5026107
0.130526 -0.9914449 0.42844123 0.0014074525 -0.010690787 0.5834766
0.114210255 -0.86751425 0.37104097 -0.06419631 0.48761967 0.50805837
0.1022663 -0.77679074 0.21422061 -0.112680614 0.85589504 0.29451197
0.097894505 -0.7435837 5.246892e-17 -0.130526 0.9914448 0
0.1022663 -0.77679074 -0.21422061 -0.112680614 0.85589504 -0.29451197
0.114210255 -0.86751425 -0.37104097 -0.06419632 0.48761967 -0.50805837
0.130526 -0.9914449 -0.42844123 0.0014074723 -0.010690734 -0.5834766
0.14684176 -1.1153755 -0.37104097 0.066307366 -0.5036548 -0.50261074
0.15878572 -1.206099 -0.21422061 0.11338419 -0.8612397 -0.28906465
0.32352325 -1.2074075 0 0.2588189 -0.96592575 0
0.31485447 -1.175055 0.21422061 0.22482859 -0.8390719 0.2890647
0.29117092 -1.0866667 0.37104097 0.1314803 -0.49069124 0.5026107
0.2588186 -0.96592593 0.42844123 0.0027908762 -0.0104156 0.58347666
0.22646627 -0.84518516 0.37104097 -0.12729414 0.47506875 0.50805837
0.20278272 -0.75679684 0.21422061 -0.22343318 0.833865 0.29451194
0.19411394 -0.72444445 5.246892e-17 -0.25881872 0.9659258 0
0.20278272 -0.75679684 -0.21422061 -0.22343318 0.833865 -0.29451194
0.22646627 -0.84518516 -0.37104097 -0.12729418 0.47506875 -0.5080584
0.2588186 -0.96592593 -0.42844123 0.0027908739 -0.01041558 -0.58347666
0.29117092 -1.0866667 -0.37104097 0.13148035 -0.49069124 -0.5026106
0.31485447 -1.175055 -0.21422061 0.22482859 -0.8390719 -0.2890647
0.47835457 -1.1548493 0 0.38268346 -0.92387944 0
0.4655371 -1.1239052 0.21422061 0.33242613 -0.8025477 0.2890646
0.43051913 -1.0393643 0.37104097 0.1944035 -0.46933165 0.5026107
0.38268366 -0.92387944 0.42844123 0.0041264496 -0.009962208 0.5834766
0.3348482 -0.8083945 0.37104097 -0.18821406 0.45438915 0.5080585
0.29983023 -0.72385365 0.21422061 -0.330363 0.79756725 0.29451194
0.28701276 -0.6929096 5.246892e-17 -0.38268322 0.9238795 3.6925954e-08
0.29983023 -0.72385365 -0.21422061 -0.33036298 0.79756725 -0.29451194
0.3348482 -0.8083945 -0.37104097 -0.18821402 0.45438907 -0.5080585
0.38268366 -0.92387944 -0.42844123 0.004126408 -0.009962212 -0.5834766
0.43051913 -1.0393643 -0.37104097 0.19440359 -0.4693318 -0.5026106
0.4655371 -1.1239052 -0.21422061 0.33242616 -0.8025477 -0.28906453
0.62499994 -1.0825318 0 0.4999999 -0.86602545 0
0.6082531 -1.0535254 0.21422061 0.4343356 -0.7522914 0.28906465
0.56249994 -0.9742786 0.37104097 0.2540004 -0.4399417 0.5026107
0.49999997 -0.86602545 0.42844123 0.005391474 -0.009338324 0.58347666
0.43749997 -0.75777227 0.37104097 -0.24591362 0.42593488 0.5080584
0.3917468 -0.67852545 0.21422061 -0.43164033 0.74762267 0.29451197
0.37499997 -0.6495191 5.246892e-17 -0.5000001 0.86602527 3.692596e-08
0.3917468 -0.67852545 -0.21422061 -0.4316403 0.7476227 -0.294512
0.43749997 -0.75777227 -0.37104097 -0.24591361 0.42593482 -0.5080585
0.49999997 -0.86602545 -0.42844123 0.00539139 -0.009338324 -0.58347666
0.56249994 -0.9742786 -0.37104097 0.25400046 -0.43994185 -0.50261056
0.6082531 -1.0535254 -0.21422061 0.43433562 -0.7522915 -0.28906456
0.7609515 -0.9916919 0 0.60876113 -0.7933535 0
0.74056184 -0.9651196 0.21422061 0.52881324 -0.6891634 0.2890647
0.68485636 -0.8925227 0.37104097 0.30925122 -0.4030244 0.5026106
0.6087612 -0.7933535 0.42844123 0.006564242 -0.00855473 0.5834766
0.532666 -0.6941843 0.37104097 -0.29940543 0.39019293 0.50805837
0.4769605 -0.6215874 0.21422061 -0.5255317 0.68488663 0.2945119
0.4565709 -0.5950151 5.246892e-17 -0.6087611 0.79335344 0
0.4769605 -0.6215874 -0.21422061 -0.52553165 0.6848867 -0.29451188
0.532666 -0.6941843 -0.37104097 -0.2994054 0.39019293 -0.50805837
0.6087612 -0.7933535 -0.42844123 0.0065641976 -0.00855471 -0.5834766
0.68485636 -0.8925227 -0.37104097 0.30925128 -0.40302444 -0.50261056
0.74056184 -0.9651196 -0.21422061 0.52881324 -0.6891635 -0.28906462
0.883883 -0.88388395 0 0.7071065 -0.70710695 0
0.86019945 -0.8602004 0.21422061 0.6142431 -0.6142436 0.2890646
0.79549474 -0.79549557 0.37104097 0.35921094 -0.3592113 0.5026105
0.7071064 -0.7071072 0.42844123 0.007624743 -0.0076248166 0.5834766
0.6187181 -0.6187188 0.37104097 -0.34777427 0.3477745 0.5080585
0.5540134 -0.55401397 0.21422061 -0.6104312 0.61043173 0.294512
0.5303298 -0.5303304 5.246892e-17 -0.70710635 0.70710707 0
0.5540134 -0.55401397 -0.21422061 -0.6104312 0.6104317 -0.29451206
0.6187181 -0.6187188 -0.37104097 -0.34777424 0.34777448 -0.5080585
0.7071064 -0.7071072 -0.42844123 0.0076248017 -0.0076248166 -0.5834766
0.79549474 -0.79549557 -0.37104097 0.35921097 -0.35921124 -0.5026105
0.86019945 -0.8602004 -0.21422061 0.61424315 -0.6142436 -0.28906456
0.9916918 -0.76095164 0 0.7933534 -0.60876125 2.902349e-08
0.9651195 -0.740562 0.21422061 0.68916327 -0.5288135 0.28906468
0.89252263 -0.6848565 0.37104097 0.40302444 -0.30925152 0.50261056
0.79335344 -0.6087613 0.42844123 0.008554705 -0.0065642376 0.5834766
0.69418424 -0.53266615 0.37104097 -0.3901928 0.29940543 0.5080585
0.6215874 -0.4769606 0.21422061 -0.68488646 0.52553165 0.29451206
0.59501505 -0.45657098 5.246892e-17 -0.7933534 0.60876125 0
0.6215874 -0.4769606 -0.21422061 -0.68488646 0.52553165 -0.29451206
0.69418424 -0.53266615 -0.37104097 -0.39019284 0.29940543 -0.5080584
0.79335344 -0.6087613 -0.42844123 0.00855475 -0.0065642702 -0.58347666
0.89252263 -0.6848565 -0.37104097 0.40302452 -0.30925155 -0.5026105
0.9651195 -0.740562 -0.21422061 0.68916327 -0.5288135 -0.28906465
1.0825317 -0.6250001 0 0.86602527 -0.5000001 2.6121139e-08
1.0535253 -0.6082533 0.21422061 0.75229114 -0.43433574 0.28906476
0.9742785 -0.5625001 0.37104097 0.4399418 -0.25400054 0.50261056
0.8660253 -0.5000001 0.42844123 0.009338371 -0.0053914087 0.5834766
0.75777215 -0.43750012 0.37104097 -0.42593482 0.24591374 0.5080584
0.6785253 -0.3917469 0.21422061 -0.74762267 0.43164036 0.29451206
0.64951897 -0.3750001 5.246892e-17 -0.8660252 0.5000002 0
0.6785253 -0.3917469 -0.21422061 -0.7476227 0.43164042 -0.29451206
0.75777215 -0.43750012 -0.37104097 -0.4259349 0.24591374 -0.50805837
0.8660253 -0.5000001 -0.42844123 0.009338323 -0.0053914194 -0.5834766
0.9742785 -0.5625001 -0.37104097 0.4399418 -0.2540005 -0.5026106
1.0535253 -0.6082533 -0.21422061 0.7522912 -0.43433574 -0.28906476
1.1548493 -0.47835475 0 0.9238793 -0.38268384 1.4511745e-08
1.1239052 -0.46553728 0.21422061 0.80254745 -0.33242628 0.28906474
1.0393643 -0.43051928 0.37104097 0.46933177 -0.1944036 0.5026106
0.9238794 -0.3826838 0.42844123 0.00996228 -0.0041264812 0.5834766
0.80839443 -0.33484834 0.37104097 -0.45438915 0.18821432 0.5080584
0.72385365 -0.29983035 0.21422061 -0.797567 0.33036336 0.29451206
0.69290954 -0.28701288 5.246892e-17 -0.9238794 0.3826837 2.8404585e-09
0.72385365 -0.29983035 -0.21422061 -0.797567 0.33036336 -0.29451206
0.80839443 -0.33484834 -0.37104097 -0.45438915 0.18821432 -0.5080584
0.9238794 -0.3826838 -0.42844123 0.009962192 -0.004126479 -0.5834766
1.0393643 -0.43051928 -0.37104097 0.46933168 -0.19440359 -0.5026106
1.1239052 -0.46553728 -0.21422061 0.80254745 -0.3324263 -0.28906474
1.2074074 -0.32352346 0 0.9659258 -0.25881872 1.1609393e-08
1.175055 -0.31485468 0.21422061 0.83907205 -0.2248285 0.28906468
1.0866666 -0.29117113 0.37104097 0.49069124 -0.1314803 0.5026107
0.9659259 -0.25881878 0.42844123 0.010415549 -0.002790828 0.5834766
0.84518516 -0.22646643 0.37104097 -0.47506863 0.12729427 0.5080584
0.7567968 -0.20278287 0.21422061 -0.8338649 0.22343333 0.294512
0.7244444 -0.19411409 5.246892e-17 -0.96592575 0.2588189 -5.680918e-09
0.7567968 -0.20278287 -0.21422061 -0.8338649 0.22343336 -0.29451206
0.84518516 -0.22646643 -0.37104097 -0.47506863 0.12729426 -0.5080584
0.9659259 -0.25881878 -0.42844123 0.010415526 -0.0027908334 -0.58347666
1.0866666 -0.29117113 -0.37104097 0.49069116 -0.13148029 -0.5026106
1.175055 -0.31485468 -0.21422061 0.83907205 -0.2248285 -0.28906465
1.2393061 -0.16315772 0 0.9914449 -0.13052613 -2.9023486e-09
1.206099 -0.15878591 0.21422061 0.8612397 -0.11338438 0.28906465
1.1153755 -0.14684194 0.37104097 0.50365496 -0.06630746 0.5026106
0.9914449 -0.13052617 0.42844123 0.0106907645 -0.0014074042 0.58347666
0.86751425 -0.1142104 0.37104097 -0.48761958 0.06419635 0.5080584
0.77679074 -0.10226642 0.21422061 -0.8558949 0.112680644 0.29451197
0.7435837 -0.097894624 5.246892e-17 -0.9914448 0.13052608 -2.8404585e-09
0.77679074 -0.10226642 -0.21422061 -0.8558949 0.112680644 -0.29451197
0.86751425 -0.1142104 -0.37104097 -0.48761955 0.06419634 -0.5080584
0.9914449 -0.13052617 -0.42844123 0.010690774 -0.0014074042 -0.58347666
1.1153755 -0.14684194 -0.37104097 0.503655 -0.06630747 -0.5026106
1.206099 -0.15878591 -0.21422061 0.8612397 -0.11338437 -0.28906462
